<svg xmlns="http://www.w3.org/2000/svg" viewBox="0 0 192.97 54.22"><defs><style>.cls-1{fill:#2f62fb;}.cls-2{fill:#0299e5;}.cls-3{font-size:32.81px;font-family:NexaBold, Nexa Bold;}.cls-3,.cls-4{fill:#2e3754;}.cls-4{font-size:11.59px;font-family:NexaLight, Nexa Light;}</style></defs><g id="Layer_2" data-name="Layer 2"><g id="Layer_1-2" data-name="Layer 1"><path class="cls-1" d="M35.44,29.77a18,18,0,0,1-8.31,15.14h0a17.52,17.52,0,0,1-1.58.91h0L25.2,46h0l-7.75,4.44-3.33,1.92h0l-.23.13h0A8.35,8.35,0,0,1,12,53.53h0l-.22.13h0a8.5,8.5,0,0,1-3,.56H8.63a8.67,8.67,0,0,1-7.14-3.69h0a7,7,0,0,1-.63-1.05h0A8.47,8.47,0,0,1,.31,48h0A8.24,8.24,0,0,1,0,45.8V41.42a1.17,1.17,0,0,1,.12-.52,6.77,6.77,0,0,1,.41-.67A5.81,5.81,0,0,1,1.77,39c.85-.61,6.71-4,14.89-8.56a1.14,1.14,0,0,0,.59-1V14.53a9.08,9.08,0,0,1,.05-.91,8.33,8.33,0,0,1,.42-1.87,8.47,8.47,0,0,1,3.14-4.14l.1-.07,1.18-.67L33.69.25a1.15,1.15,0,0,1,1.73.86.37.37,0,0,1,0,.11V29.1C35.44,29.33,35.44,29.55,35.44,29.77Z"/><path class="cls-2" d="M35.44,29.68a17.94,17.94,0,0,1-8.31,15.13h0a15.34,15.34,0,0,1-1.58.9h0l-.34.16h0l-7.75,4.44-3.33,1.91h0l-.23.12h0l-.13.09A12,12,0,0,0,17.24,44c0-.31,0-.61,0-.91a.22.22,0,0,1,0-.08V30.09l.05,0V14.43c0-.3,0-.6.05-.9a8.41,8.41,0,0,1,.42-1.88,8.52,8.52,0,0,1,3.14-4.14l.1-.06,1.18-.68L33.69.16A1.15,1.15,0,0,1,35.42,1a.41.41,0,0,1,0,.11V29C35.44,29.23,35.44,29.45,35.44,29.68Z"/><text class="cls-3" transform="translate(43.51 29.5)">Jobdable</text><text class="cls-4" transform="translate(44.79 46.51)">Disability is not an obstacle</text></g></g></svg>