<svg xmlns="http://www.w3.org/2000/svg" viewBox="0 0 287.92 287.92"><defs><style>.cls-1,.cls-5,.cls-6,.cls-7{fill:#fff;}.cls-2{fill:#070b3c;}.cls-3{fill:#2f62fb;}.cls-4{fill:#0299e5;}.cls-5{font-size:32.81px;}.cls-5,.cls-6{font-family:NexaBold, Nexa Bold;}.cls-6{font-size:16.24px;}.cls-7{font-size:11.59px;font-family:NexaLight, Nexa Light;}</style></defs><g id="Layer_2" data-name="Layer 2"><g id="Layer_1-2" data-name="Layer 1"><path class="cls-1" d="M271.71,7.2l12-7.2V14.21a33.34,33.34,0,0,1-8-.29c-3.8-.6-4.65-1.43-4.92-2.16a4.51,4.51,0,0,1,0-2.28A7.2,7.2,0,0,1,271.71,7.2Z"/><rect class="cls-2" width="287.92" height="287.92"/><path class="cls-3" d="M71.87,137.28a18,18,0,0,1-8.31,15.14h0a16.31,16.31,0,0,1-1.57.9h0l-.34.17h0l-7.76,4.44-3.33,1.91h0l-.23.12h0a8.77,8.77,0,0,1-1.84,1h0l-.22.12h0a8.5,8.5,0,0,1-3,.55h-.14A8.68,8.68,0,0,1,37.92,158h0a7.49,7.49,0,0,1-.63-1.05h0a8.81,8.81,0,0,1-.55-1.43h0a8.3,8.3,0,0,1-.31-2.24v-4.38a1.17,1.17,0,0,1,.12-.52,5.46,5.46,0,0,1,.42-.67,5.53,5.53,0,0,1,1.23-1.2c.85-.6,6.72-4,14.89-8.55a1.14,1.14,0,0,0,.59-1V122c0-.3,0-.6,0-.9a8.41,8.41,0,0,1,.42-1.88,8.52,8.52,0,0,1,3.14-4.14l.1-.06,1.18-.68,11.55-6.61a1.15,1.15,0,0,1,1.73.85.41.41,0,0,1,0,.11v27.89C71.87,136.83,71.87,137.05,71.87,137.28Z"/><path class="cls-4" d="M71.87,137.18a18,18,0,0,1-8.31,15.14h0c-.51.32-1,.62-1.57.9h0l-.34.17h0l-7.76,4.44-3.33,1.92h0l-.23.13h0l-.13.1a12,12,0,0,0,3.5-8.49c0-.3,0-.61,0-.91a.17.17,0,0,1,0-.07V137.59l0,0V121.94a9.08,9.08,0,0,1,0-.91,8.33,8.33,0,0,1,.42-1.87A8.47,8.47,0,0,1,57.29,115l.1-.06,1.18-.68,11.55-6.62a1.15,1.15,0,0,1,1.73.86.37.37,0,0,1,0,.11v27.89C71.87,136.74,71.87,137,71.87,137.18Z"/><text class="cls-5" transform="translate(79.94 137.01)">Jobdable</text><text class="cls-6" transform="translate(41.78 273.42)">Jobdable</text><text class="cls-7" transform="translate(81.22 154.02)">Disability is not an obstacle</text><path class="cls-1" d="M19.76,274.21c.39-.26,3-1.71,6.66-3.68v9.27l-.83.46-.11.06a4.31,4.31,0,0,1-.87.48h0l-.1.05h0a4.17,4.17,0,0,1-1.43.25H23a4.13,4.13,0,0,1-3.36-1.68h0a2.92,2.92,0,0,1-.29-.48,3.71,3.71,0,0,1-.27-.65,3.75,3.75,0,0,1-.14-1v-2.1a2.3,2.3,0,0,1,.25-.43A3.18,3.18,0,0,1,19.76,274.21Z"/><path class="cls-1" d="M35.67,270a8.1,8.1,0,0,1-3.93,6.88h0a6.79,6.79,0,0,1-.75.41l-.16.08-3.66,2-.09.05V263.08c0-.14,0-.28,0-.42a3.81,3.81,0,0,1,.19-.84,3.85,3.85,0,0,1,1.52-1.9l.57-.33,5.73-3.15a.6.6,0,0,1,.55.59V269.7C35.66,269.8,35.67,269.9,35.67,270Z"/></g></g></svg>