<svg xmlns="http://www.w3.org/2000/svg" viewBox="0 0 96.82 24.67"><defs><style>.cls-1{font-size:16.24px;font-family:NexaBold, Nexa Bold;}.cls-1,.cls-2{fill:#fff;}</style></defs><g id="Layer_2" data-name="Layer 2"><g id="Layer_1-2" data-name="Layer 1"><text class="cls-1" transform="translate(22.85 16.98)">Jobdable</text><path class="cls-2" d="M.83,17.77c.39-.26,3-1.71,6.66-3.68v9.27l-.83.46-.11.06a4.05,4.05,0,0,1-.87.48h0l-.1.05h0a4.27,4.27,0,0,1-1.44.25H4.08A4.14,4.14,0,0,1,.71,23h0a2.92,2.92,0,0,1-.29-.48,3,3,0,0,1-.26-.65,3.4,3.4,0,0,1-.15-1v-2.1a2,2,0,0,1,.26-.43A2.93,2.93,0,0,1,.83,17.77Z"/><path class="cls-2" d="M16.74,13.56a8.1,8.1,0,0,1-3.93,6.88h0a6.79,6.79,0,0,1-.75.41l-.16.08L8.24,23,8.15,23V6.64c0-.14,0-.28,0-.42a3.33,3.33,0,0,1,.2-.84,3.78,3.78,0,0,1,1.51-1.9l.58-.33L16.18,0a.6.6,0,0,1,.55.59V13.26C16.73,13.36,16.74,13.46,16.74,13.56Z"/></g></g></svg>