<svg width="210" height="50" viewBox="0 0 210 50" fill="none" xmlns="http://www.w3.org/2000/svg">
<path d="M32.5788 27.4278C32.578 30.2035 31.8771 32.9341 30.5408 35.367C29.2045 37.7998 27.2761 39.8563 24.934 41.346C24.4673 41.6527 23.9827 41.9313 23.4828 42.1802L23.1628 42.3402L15.998 46.3625L12.9356 48.1223L12.7299 48.248C12.2089 48.6381 11.6407 48.9607 11.0386 49.2079L10.833 49.3222C9.94215 49.659 8.99708 49.8294 8.04474 49.825H7.93047C6.64188 49.8241 5.37257 49.512 4.23056 48.9151C3.08854 48.3182 2.10763 47.4543 1.37129 46.3968C1.1633 46.0876 0.972559 45.7672 0.799936 45.4369C0.592119 45.0154 0.423802 44.5755 0.297142 44.1228C0.109675 43.4685 0.00976949 42.7922 3.69347e-05 42.1116V38.0779C-0.0013773 37.911 0.0378415 37.7463 0.114308 37.5979C0.224963 37.3834 0.350991 37.1772 0.491404 36.9809C0.811682 36.5438 1.19706 36.1584 1.63412 35.8382C2.42259 35.2896 7.8162 32.17 15.3467 27.9763C15.5138 27.8867 15.6533 27.7531 15.7499 27.5899C15.8466 27.4268 15.8968 27.2403 15.8952 27.0507V13.3381C15.8778 13.0603 15.8778 12.7817 15.8952 12.5039C16.0053 11.3999 16.3547 10.3332 16.9191 9.37803C17.4835 8.42286 18.2494 7.6022 19.1633 6.97321H19.2548L20.3403 6.34472L30.9676 0.231202C31.1204 0.143394 31.2924 0.0945313 31.4686 0.088923C31.6447 0.0833147 31.8195 0.121133 31.9776 0.199043C32.1357 0.276953 32.2722 0.392561 32.375 0.535673C32.4779 0.678786 32.5439 0.845005 32.5674 1.01967V26.7536C32.5788 26.9593 32.5788 27.165 32.5788 27.4278Z" fill="#2F62FB"/>
<path d="M32.5788 27.2788C32.578 30.0545 31.877 32.7851 30.5408 35.218C29.2045 37.6509 27.2761 39.7073 24.934 41.1971C24.4673 41.5037 23.9827 41.7823 23.4828 42.0312L23.1628 42.1912L15.998 46.2707L12.9698 47.9962L12.7641 48.1105L12.6384 48.2019C14.7013 46.1281 15.8598 43.3222 15.8609 40.3971C15.8609 40.1229 15.8609 39.8372 15.8609 39.563V27.6559V13.2691C15.8435 12.9913 15.8435 12.7127 15.8609 12.435C15.9698 11.3191 16.3232 10.241 16.896 9.27721C17.4687 8.31342 18.2468 7.48762 19.1747 6.85852H19.2662L20.3517 6.24145L30.9676 0.150789C31.119 0.0601643 31.2906 0.00868767 31.467 0.00100691C31.6433 -0.00667386 31.8188 0.0296831 31.9775 0.106795C32.1363 0.183907 32.2733 0.299346 32.3763 0.442689C32.4793 0.586032 32.5449 0.752765 32.5673 0.927834V26.6732C32.5788 26.8674 32.5788 27.0731 32.5788 27.2788Z" fill="#0299E5"/>
<path d="M64.9828 9.05615C60.6711 9.05615 56.397 9.05615 52.1229 9.05615V13.6677H60.0338V24.0906C60.0338 28.0648 57.9342 31.1767 53.4351 31.1767C48.9735 31.1767 46.7989 28.8896 46.7989 24.3906H41.9249C41.9249 31.8141 46.724 35.8257 53.4351 35.8257C60.6711 35.8257 64.9828 30.8767 64.9828 24.0906V9.05615Z" fill="#2E3754"/>
<path d="M77.6242 16.4422C71.7379 16.4422 68.0636 20.7913 68.0636 26.0777C68.0636 31.4016 71.6629 35.7133 77.6617 35.7133C83.6604 35.7133 87.2972 31.4016 87.2972 26.0777C87.2972 20.7913 83.5105 16.4422 77.6242 16.4422ZM77.6617 20.6038C80.736 20.6038 82.6856 23.3033 82.6856 26.0777C82.6856 28.8896 80.9985 31.5141 77.6617 31.5141C74.3248 31.5141 72.6377 28.8896 72.6377 26.0777C72.6377 23.3033 74.3623 20.6038 77.6617 20.6038Z" fill="#2E3754"/>
<path d="M100.69 20.6413C103.615 20.6413 105.939 22.7034 105.939 26.0402C105.939 29.2646 103.615 31.4766 100.69 31.4766C97.8033 31.4766 95.3288 29.377 95.3288 26.0402C95.3288 22.8159 97.8033 20.6413 100.69 20.6413ZM90.4548 9.09364V35.3009H94.7289L95.0288 32.7514C96.4536 34.9634 98.7406 35.7133 100.99 35.7133C106.427 35.7133 110.513 32.114 110.513 26.0402C110.513 19.6665 106.502 16.3672 101.103 16.3672C99.153 16.3672 96.1161 17.417 95.0288 19.3291V9.09364H90.4548Z" fill="#2E3754"/>
<path d="M122.848 20.6413C125.735 20.6413 128.21 22.8159 128.21 26.0402C128.21 29.377 125.735 31.4766 122.848 31.4766C119.924 31.4766 117.599 29.2646 117.599 26.0402C117.599 22.7034 119.924 20.6413 122.848 20.6413ZM128.51 9.09364V19.3291C127.422 17.417 124.385 16.3672 122.436 16.3672C117.037 16.3672 113.025 19.6665 113.025 26.0402C113.025 32.114 117.112 35.7133 122.548 35.7133C124.798 35.7133 127.085 34.9634 128.51 32.7514L128.81 35.3009H133.084V9.09364H128.51Z" fill="#2E3754"/>
<path d="M151.574 19.3666C150.524 17.5294 148.162 16.3672 145.687 16.3672C140.288 16.3297 136.052 19.6665 136.052 26.0402C136.052 32.5264 140.101 35.9007 145.575 35.8632C147.637 35.8257 150.524 34.776 151.574 32.6014L151.799 35.3009H156.11V16.8171H151.724L151.574 19.3666ZM146.1 20.4539C153.298 20.4539 153.298 31.6641 146.1 31.6641C143.063 31.6641 140.626 29.5645 140.626 26.0402C140.626 22.5159 143.063 20.4539 146.1 20.4539Z" fill="#2E3754"/>
<path d="M169.853 20.6413C172.778 20.6413 175.102 22.7034 175.102 26.0402C175.102 29.2646 172.778 31.4766 169.853 31.4766C166.967 31.4766 164.492 29.377 164.492 26.0402C164.492 22.8159 166.967 20.6413 169.853 20.6413ZM159.618 9.09364V35.3009H163.892L164.192 32.7514C165.617 34.9634 167.904 35.7133 170.153 35.7133C175.59 35.7133 179.676 32.114 179.676 26.0402C179.676 19.6665 175.665 16.3672 170.266 16.3672C168.316 16.3672 165.279 17.417 164.192 19.3291V9.09364H159.618Z" fill="#2E3754"/>
<path d="M183.051 9.09364V35.3009H187.587V9.09364H183.051Z" fill="#2E3754"/>
<path d="M209.916 27.6899C210.628 20.0789 206.766 16.2547 200.58 16.2547C194.581 16.2547 190.757 20.3039 190.757 25.9277C190.757 31.8515 194.544 35.7883 200.917 35.7883C203.729 35.7883 206.916 34.8134 208.866 32.7889L205.941 29.9019C204.892 30.9892 202.68 31.6266 200.992 31.6266C197.768 31.6266 195.781 29.9769 195.481 27.6899H209.916ZM195.556 23.9032C196.231 21.5036 198.255 20.3039 200.73 20.3039C203.354 20.3039 205.229 21.5036 205.529 23.9032H195.556Z" fill="#2E3754"/>
</svg>
